HIERARCHY
ROOT Hips
{
	OFFSET 0.00 0.00 0.00
	CHANNELS 6 Xposition Yposition Zposition Xrotation Yrotation Zrotation
	JOINT Spine
	{
		OFFSET 0.00000 7.06766 0.00000
		CHANNELS 3 Xrotation Yrotation Zrotation
		JOINT Head
		{
			OFFSET 0.00000 15.03989 0.00000
			CHANNELS 3 Xrotation Yrotation Zrotation
			End Site
			{
				OFFSET 0.00000 4.52755 0.00000
			}
		}
		JOINT LeftShoulder
		{
			OFFSET 0.00000 10.53037 0.00000
			CHANNELS 3 Xrotation Yrotation Zrotation
			JOINT LeftArm
			{
				OFFSET 7.02886 0.00000 0.00000
				CHANNELS 3 Xrotation Yrotation Zrotation
				JOINT LeftForeArm
				{
					OFFSET 10.79770 0.00000 0.00000
					CHANNELS 3 Yrotation Zrotation Xrotation
					JOINT LeftHand
					{
						OFFSET 7.90744 0.00000 0.00000
						CHANNELS 3 Xrotation Yrotation Zrotation
						JOINT LeftHandThumb1
						{
							OFFSET 0.00000 0.00000 0.00000
							CHANNELS 3 Xrotation Zrotation Yrotation
							End Site
							{
								OFFSET 0.00000 0.00000 3.93700
							}
						}
						End Site
						{
							OFFSET 3.93700 0.00000 0.00000
						}
					}
				}
			}
		}
		JOINT RightShoulder
		{
			OFFSET 0.00000 10.53037 0.00000
			CHANNELS 3 Xrotation Yrotation Zrotation
			JOINT RightArm
			{
				OFFSET -7.02886 0.00000 0.00000
				CHANNELS 3 Xrotation Yrotation Zrotation
				JOINT RightForeArm
				{
					OFFSET -10.79770 0.00000 0.00000
					CHANNELS 3 Yrotation Zrotation Xrotation
					JOINT RightHand
					{
						OFFSET -7.90744 0.00000 0.00000
						CHANNELS 3 Xrotation Yrotation Zrotation
						JOINT RightHandThumb1
						{
							OFFSET 0.00000 0.00000 0.00000
							CHANNELS 3 Xrotation Zrotation Yrotation
							End Site
							{
								OFFSET 0.00000 0.00000 3.93700
							}
						}
						End Site
						{
							OFFSET -3.93700 0.00000 0.00000
						}
					}
				}
			}
		}
	}
	JOINT LeftUpLeg
	{
		OFFSET 4.01300 0.00000 0.00000
		CHANNELS 3 Xrotation Yrotation Zrotation
		JOINT LeftLeg
		{
			OFFSET 0.00000 -16.89976 0.00000
			CHANNELS 3 Xrotation Yrotation Zrotation
			JOINT LeftFoot
			{
				OFFSET 0.00000 -17.38918 0.00000
				CHANNELS 3 Xrotation Yrotation Zrotation
				JOINT LeftToeBase
				{
					OFFSET 0.00000 -1.27456 4.75673
					CHANNELS 3 Xrotation Yrotation Zrotation
					End Site
					{
						OFFSET 0.00000 0.00000 2.95275
					}
				}
			}
		}
	}
	JOINT RightUpLeg
	{
		OFFSET -4.01300 0.00000 0.00000
		CHANNELS 3 Xrotation Yrotation Zrotation
		JOINT RightLeg
		{
			OFFSET 0.00000 -16.89976 0.00000
			CHANNELS 3 Xrotation Yrotation Zrotation
			JOINT RightFoot
			{
				OFFSET 0.00000 -17.38918 0.00000
				CHANNELS 3 Xrotation Yrotation Zrotation
				JOINT RightToeBase
				{
					OFFSET 0.00000 -1.27456 4.75673
					CHANNELS 3 Xrotation Yrotation Zrotation
					End Site
					{
						OFFSET 0.00000 0.00000 2.95275
					}
				}
			}
		}
	}
}
MOTION
Frames: 11
Frame Time: 0.008333
 19.3284 35.1559 -22.1288 175.2524 -1.5086 176.2101 -14.6854 -0.8474 3.8435 7.1281 -0.3202 -0.4620 -39.3835 -0.0922 18.0895 1.6532 0.0117 -6.8874 3.4485 0.0000 10.3448 0.7359 10.9930 -3.8536 33.1476 -0.0000 26.2537 1.1251 -13.8098 -11.9033 -41.8151 -1.8641 8.4986 4.7517 -0.0000 33.1621 1.0389 -7.0101 8.4513 32.8623 0.0000 -24.3270 7.1177 3.7746 7.0433 -14.4519 -0.0000 0.0000 -5.3060 20.0753 17.2207 -138.9883 0.0000 -0.0000 3.7783 -9.4045 0.5319 -3.4768 0.0000 0.0000 -17.6043 -29.0437 0.2489 24.4072 0.0000 -0.0000
 19.3264 35.1554 -22.1344 175.2468 -1.5275 176.2126 -14.6860 -0.8604 3.8469 7.1142 -0.3024 -0.4714 -39.3880 -0.0921 18.1016 1.6459 0.0146 -6.8884 3.4621 0.0000 10.3649 0.7363 10.9764 -3.8614 33.1476 -0.0000 26.2537 1.1429 -13.8308 -11.9026 -41.8413 -1.8503 8.4847 4.7365 -0.0000 33.1858 1.0383 -6.9980 8.4609 32.8623 0.0000 -24.3270 7.1217 3.7460 7.0422 -14.4527 -0.0000 -0.0000 -5.3122 20.0840 17.2233 -138.9739 0.0000 0.0000 3.7950 -9.4323 0.5297 -3.4986 0.0000 0.0000 -17.5566 -29.0531 0.3343 24.2561 0.0000 0.0000
 19.3262 35.1549 -22.1394 175.2389 -1.5423 176.2103 -14.6906 -0.8628 3.8485 7.0984 -0.2940 -0.4666 -39.3778 -0.0854 18.1100 1.6435 -0.0037 -6.8837 3.4786 0.0000 10.3716 0.7324 10.9419 -3.8530 33.1476 -0.0000 26.2537 1.1369 -13.8597 -11.9001 -41.8451 -1.8358 8.4784 4.7356 -0.0000 33.2216 1.0411 -7.0177 8.4601 32.8623 0.0000 -24.3270 7.1189 3.7490 7.0439 -14.4530 0.0000 0.0000 -5.3261 20.0628 17.2380 -139.0154 -0.0000 0.0000 3.8262 -9.3515 0.5353 -3.5498 0.0000 0.0000 -17.5859 -29.1362 0.2345 24.3807 -0.0000 -0.0000
 19.3259 35.1544 -22.1443 175.2306 -1.5523 176.2064 -14.6949 -0.8685 3.8528 7.0839 -0.2826 -0.4617 -39.3848 -0.0899 18.1274 1.6318 0.0081 -6.8847 3.4641 0.0000 10.4208 0.7317 10.9471 -3.8474 33.1476 -0.0000 26.2537 1.1250 -13.8666 -11.9042 -41.8493 -1.8468 8.4640 4.7467 -0.0000 33.2685 1.0422 -7.0086 8.4795 32.8623 0.0000 -24.3270 7.1193 3.7536 7.0474 -14.4599 -0.0000 -0.0000 -5.3127 20.0637 17.2333 -138.9500 0.0000 0.0000 3.8301 -9.3441 0.5387 -3.5521 -0.0000 -0.0000 -17.5961 -29.1460 0.2191 24.3942 0.0000 -0.0000
 19.3248 35.1538 -22.1501 175.2264 -1.5618 176.2051 -14.6942 -0.8772 3.8621 7.0696 -0.2715 -0.4708 -39.4049 -0.0799 18.1343 1.6432 -0.0051 -6.8729 3.4731 0.0000 10.4247 0.7286 10.9460 -3.8317 33.1476 -0.0000 26.2537 1.1009 -13.8788 -11.9214 -41.9039 -1.8893 8.4598 4.8296 -0.0000 33.3639 1.0527 -7.0527 8.5120 32.8623 0.0000 -24.3270 7.1237 3.7639 7.0474 -14.4611 0.0000 -0.0000 -5.3265 20.0246 17.2335 -138.9572 0.0000 -0.0000 3.8408 -9.3422 0.5394 -3.5597 0.0000 0.0000 -17.6007 -29.1578 0.2102 24.4034 0.0000 -0.0000
 19.3236 35.1531 -22.1551 175.2217 -1.5782 176.2065 -14.6950 -0.8895 3.8634 7.0655 -0.2631 -0.4768 -39.4060 -0.0763 18.1364 1.6489 -0.0099 -6.8559 3.4802 0.0000 10.4187 0.7244 10.9248 -3.8166 33.1476 -0.0000 26.2537 1.0867 -13.8926 -11.9353 -41.9179 -1.8972 8.4621 4.8412 -0.0000 33.4129 1.0537 -7.0725 8.4964 32.8623 0.0000 -24.3270 7.1232 3.7556 7.0431 -14.4620 -0.0000 -0.0000 -5.3335 20.0471 17.2378 -138.9689 -0.0000 -0.0000 3.8460 -9.3680 0.5389 -3.5581 0.0000 0.0000 -17.6263 -29.1518 0.1818 24.4492 -0.0000 0.0000
 19.3227 35.1523 -22.1602 175.2143 -1.5874 176.2072 -14.7003 -0.9002 3.8667 7.0560 -0.2708 -0.4735 -39.3925 -0.0532 18.1294 1.6557 -0.0519 -6.8365 3.5296 0.0000 10.3666 0.7016 10.9196 -3.6987 33.1476 -0.0000 26.2537 1.1002 -13.9029 -11.9440 -41.9202 -1.9047 8.4610 4.8490 -0.0000 33.4216 1.0548 -7.0816 8.4941 32.8623 0.0000 -24.3270 7.1252 3.7600 7.0397 -14.4689 0.0000 0.0000 -5.3403 20.0420 17.2317 -138.9626 -0.0000 -0.0000 3.8389 -9.4154 0.5381 -3.5427 -0.0000 0.0000 -17.5876 -29.1369 0.2766 24.2686 0.0000 -0.0000
 19.3217 35.1519 -22.1652 175.2087 -1.5968 176.2061 -14.7036 -0.9151 3.8706 7.0605 -0.2705 -0.4743 -39.3812 -0.0365 18.1416 1.6323 -0.0593 -6.8269 3.5309 0.0000 10.3833 0.7001 10.9240 -3.6894 33.1476 -0.0000 26.2537 1.1029 -13.8966 -11.9426 -41.8901 -1.9051 8.4374 4.8475 -0.0000 33.3916 1.0562 -7.0843 8.5022 32.8623 0.0000 -24.3270 7.1254 3.7625 7.0385 -14.4702 0.0000 0.0000 -5.3450 20.0308 17.2310 -138.9658 -0.0000 -0.0000 3.8397 -9.4256 0.5392 -3.5348 0.0000 -0.0000 -17.6345 -29.1253 0.1954 24.3680 0.0000 -0.0000
 19.3208 35.1514 -22.1703 175.2011 -1.6005 176.2026 -14.7144 -0.9331 3.8812 7.0775 -0.2510 -0.4765 -39.3874 -0.0353 18.1483 1.6634 -0.0400 -6.8074 3.5105 0.0000 10.3596 0.7000 10.9052 -3.6953 33.1476 -0.0000 26.2537 1.1166 -13.9037 -11.9478 -41.8744 -1.8846 8.4387 4.8304 -0.0000 33.3941 1.0549 -7.0787 8.4987 32.8623 0.0000 -24.3270 7.1249 3.7648 7.0403 -14.4694 -0.0000 0.0000 -5.3517 20.0307 17.2454 -138.9640 0.0000 -0.0000 3.8577 -9.4142 0.5430 -3.5687 -0.0000 -0.0000 -17.5808 -29.1561 0.2692 24.2527 0.0000 0.0000
 19.3192 35.1508 -22.1753 175.1952 -1.6034 176.2017 -14.7213 -0.9483 3.8914 7.0838 -0.2715 -0.4839 -39.3937 -0.0234 18.1580 1.6586 -0.0315 -6.7953 3.4970 0.0000 10.3646 0.7002 10.9034 -3.6970 33.1476 -0.0000 26.2537 1.1025 -13.9059 -11.9608 -41.8790 -1.8723 8.4379 4.8140 -0.0000 33.4163 1.0549 -7.0767 8.5009 32.8623 0.0000 -24.3270 7.1245 3.7595 7.0396 -14.4654 -0.0000 -0.0000 -5.3340 20.0182 17.2591 -139.0488 -0.0000 -0.0000 3.8639 -9.4030 0.5423 -3.5746 0.0000 0.0000 -17.5794 -29.1772 0.2899 24.2008 -0.0000 0.0000
 19.3186 35.1503 -22.1804 175.1928 -1.6005 176.2040 -14.7257 -0.9501 3.8951 7.1024 -0.2743 -0.4851 -39.3958 -0.0201 18.1643 1.6603 -0.0239 -6.7814 3.4822 0.0000 10.3385 0.7158 10.9099 -3.7766 33.1476 -0.0000 26.2537 1.0978 -13.9101 -11.9665 -41.8695 -1.8686 8.4341 4.8104 -0.0000 33.4625 1.0537 -7.0987 8.4656 32.8623 0.0000 -24.3270 7.1351 3.7452 7.0388 -14.4654 -0.0000 -0.0000 -5.3757 20.0369 17.2756 -138.9449 0.0000 -0.0000 3.8610 -9.4185 0.5402 -3.5571 -0.0000 -0.0000 -17.6430 -29.1450 0.1950 24.3949 0.0000 0.0000
